<svg xmlns="http://www.w3.org/2000/svg" width="860" height="420" viewBox="0 0 860 420" role="img" aria-label="nDCG@10  ·  136 questions, 61 files, hash embeddings, overlap reranker">
  <rect width="860" height="420" fill="#121212"/>
  <rect x="12" y="12" width="836" height="396" rx="16" fill="#1A1A24" stroke="#2A2A38"/>
  <text x="32" y="44" fill="#F4F4F8" font-family="ui-sans-serif, system-ui, sans-serif" font-size="18" font-weight="700">nDCG@10  ·  136 questions, 61 files, hash embeddings, overlap reranker</text>
  <text x="32" y="64" fill="#A8B0C0" font-family="ui-sans-serif, system-ui, sans-serif" font-size="12">Added components whose gain over the previous row excludes zero: staleness. 95% CI: paired percentile bootstrap over queries, 2000 resamples, seed 0.</text>
  <rect x="210" y="72.0" width="165.8" height="38.3" rx="4" fill="#E8D6A0"/><text x="198" y="98.1" text-anchor="end" fill="#F4F4F8" font-family="ui-sans-serif, system-ui, sans-serif" font-size="13">dense_only</text><line x1="347.6" y1="91.2" x2="406.7" y2="91.2" stroke="#F4F4F8" stroke-width="2" opacity="0.9"/><line x1="347.6" y1="85.2" x2="347.6" y2="97.2" stroke="#F4F4F8" stroke-width="2" opacity="0.9"/><line x1="406.7" y1="85.2" x2="406.7" y2="97.2" stroke="#F4F4F8" stroke-width="2" opacity="0.9"/><text x="414.7" y="98.1" fill="#E8D6A0" font-family="ui-sans-serif, system-ui, sans-serif" font-size="13" font-weight="600">0.272  [0.226, 0.322]</text><rect x="210" y="124.33333333333334" width="308.2" height="38.3" rx="4" fill="#BABAE9"/><text x="198" y="150.4" text-anchor="end" fill="#F4F4F8" font-family="ui-sans-serif, system-ui, sans-serif" font-size="13">bm25_only</text><line x1="487.1" y1="143.5" x2="548.5" y2="143.5" stroke="#F4F4F8" stroke-width="2" opacity="0.9"/><line x1="487.1" y1="137.5" x2="487.1" y2="149.5" stroke="#F4F4F8" stroke-width="2" opacity="0.9"/><line x1="548.5" y1="137.5" x2="548.5" y2="149.5" stroke="#F4F4F8" stroke-width="2" opacity="0.9"/><text x="556.5" y="150.4" fill="#E8D6A0" font-family="ui-sans-serif, system-ui, sans-serif" font-size="13" font-weight="600">0.505  [0.454, 0.555]</text><rect x="210" y="176.66666666666669" width="276.8" height="38.3" rx="4" fill="#8EB4E8"/><text x="198" y="202.7" text-anchor="end" fill="#F4F4F8" font-family="ui-sans-serif, system-ui, sans-serif" font-size="13">hybrid</text><line x1="455.2" y1="195.8" x2="521.6" y2="195.8" stroke="#F4F4F8" stroke-width="2" opacity="0.9"/><line x1="455.2" y1="189.8" x2="455.2" y2="201.8" stroke="#F4F4F8" stroke-width="2" opacity="0.9"/><line x1="521.6" y1="189.8" x2="521.6" y2="201.8" stroke="#F4F4F8" stroke-width="2" opacity="0.9"/><text x="529.6" y="202.7" fill="#E8D6A0" font-family="ui-sans-serif, system-ui, sans-serif" font-size="13" font-weight="600">0.454  [0.402, 0.511]</text><rect x="210" y="229.0" width="275.5" height="38.3" rx="4" fill="#6B7280"/><text x="198" y="255.1" text-anchor="end" fill="#F4F4F8" font-family="ui-sans-serif, system-ui, sans-serif" font-size="13">hybrid+rerank</text><line x1="461.1" y1="248.2" x2="512.9" y2="248.2" stroke="#F4F4F8" stroke-width="2" opacity="0.9"/><line x1="461.1" y1="242.2" x2="461.1" y2="254.2" stroke="#F4F4F8" stroke-width="2" opacity="0.9"/><line x1="512.9" y1="242.2" x2="512.9" y2="254.2" stroke="#F4F4F8" stroke-width="2" opacity="0.9"/><text x="520.9" y="255.1" fill="#E8D6A0" font-family="ui-sans-serif, system-ui, sans-serif" font-size="13" font-weight="600">0.452  [0.412, 0.496]</text><rect x="210" y="281.33333333333337" width="278.3" height="38.3" rx="4" fill="#C2D5FF"/><text x="198" y="307.4" text-anchor="end" fill="#F4F4F8" font-family="ui-sans-serif, system-ui, sans-serif" font-size="13">hybrid+rerank+router</text><line x1="463.3" y1="300.5" x2="516.3" y2="300.5" stroke="#F4F4F8" stroke-width="2" opacity="0.9"/><line x1="463.3" y1="294.5" x2="463.3" y2="306.5" stroke="#F4F4F8" stroke-width="2" opacity="0.9"/><line x1="516.3" y1="294.5" x2="516.3" y2="306.5" stroke="#F4F4F8" stroke-width="2" opacity="0.9"/><text x="524.3" y="307.4" fill="#E8D6A0" font-family="ui-sans-serif, system-ui, sans-serif" font-size="13" font-weight="600">0.456  [0.415, 0.502]</text><rect x="210" y="333.6666666666667" width="300.5" height="38.3" rx="4" fill="#FBDAEF"/><text x="198" y="359.7" text-anchor="end" fill="#F4F4F8" font-family="ui-sans-serif, system-ui, sans-serif" font-size="13">hybrid+rerank+router+staleness</text><line x1="485.7" y1="352.8" x2="537.9" y2="352.8" stroke="#F4F4F8" stroke-width="2" opacity="0.9"/><line x1="485.7" y1="346.8" x2="485.7" y2="358.8" stroke="#F4F4F8" stroke-width="2" opacity="0.9"/><line x1="537.9" y1="346.8" x2="537.9" y2="358.8" stroke="#F4F4F8" stroke-width="2" opacity="0.9"/><text x="545.9" y="359.7" fill="#E8D6A0" font-family="ui-sans-serif, system-ui, sans-serif" font-size="13" font-weight="600">0.493  [0.452, 0.538]</text>
</svg>
